# Created by Kenney (www.kenney.nl)

mtllib Untitled-2.mtl

v 8 8 -4.2
v 8 -8 -4.2
v 8 8 4.2
v 8 -8 4.2
v 7 8 -4.2
v 7 8 4.2
v 7 -8 4.2
v 7 -8 -4.2
v 7 7 -4.2
v 7 7 4.2
v -8 8 -4.2
v -8 8 4.2
v -8 7 4.2
v -8 7 -4.2
v -7 7 -4.2
v -7 6 -4.2
v -7 7 4.2
v -7 6 4.2
v -8 6 4.2
v -8 6 -4.2
v -7 -8 -4.2
v -7 -8 4.2
v -8 -8 4.2
v -8 -8 -4.2
v 7 -7 -4.2
v 7 -7 4.2
v -7 -7 -4.2
v -7 -7 4.2
v 7 7 -2.8
v 7 -7 -2.8
v 7 7 2.8
v 7 -7 2.8
v 4 7 -2.8
v 4 7 2.8
v 4 -7 2.8
v 4 -7 -2.8
v 4 6 -2.8
v 4 6 2.8
v -7 7 -2.8
v -7 7 2.8
v -7 6 2.8
v -7 6 -2.8
v 7 6 -2.8
v 7 6 2.8
v 6 7 -2.8
v 6 7 2.8
v 6 6 2.8
v 6 6 -2.8
v 4 4 -2.8
v 4 4 2.8
v -7 4 2.8
v -7 4 -2.8
v -4 4 -2.8
v -4 -7 -2.8
v -4 4 2.8
v -4 -7 2.8
v -7 -7 2.8
v -7 -7 -2.8
v 4 -4 -2.8
v 4 -4 2.8
v -4 -4 -2.8
v -4 -4 2.8
v 4 4 -4.9
v 4 -4 -4.9
v 4 4 4.9
v 4 -4 4.9
v -4 4 -4.9
v -4 4 4.9
v -4 -4 4.9
v -4 -4 -4.9

vn 1 0 0
vn 0 1 0
vn 0 -1 0
vn -1 0 0
vn 0 0 -1
vn 0 0 1

vt -19.68504 19.68504
vt 19.68504 19.68504
vt -19.68504 -19.68504
vt 0 NaN
vt 0 0
vt 0 NaN
vt 0 NaN
vt 0 NaN
vt 0 NaN
vt 0 NaN
vt 19.68504 -19.68504
vt 0 NaN
vt 0 NaN
vt 0 NaN
vt 0 NaN
vt 0 NaN
vt 0 NaN
vt 0 NaN
vt 0 NaN
vt 0 NaN
vt 0 NaN
vt 0 NaN
vt 0 NaN
vt 0 NaN
vt 0 NaN
vt 0 NaN
vt 0 NaN
vt 0 NaN
vt 0 NaN
vt 0 NaN
vt 0 NaN
vt 0 NaN
vt 0 NaN
vt 0 NaN
vt 0 NaN
vt 0 NaN
vt 0 NaN
vt 0 NaN
vt 0 NaN
vt 0 NaN
vt 0 NaN
vt 0 NaN
vt 0 NaN
vt 0 NaN
vt 0 NaN
vt 0 NaN
vt 0 NaN
vt 0 NaN
vt 0 NaN
vt 0 NaN
vt 0 NaN
vt 0 NaN
vt 0 NaN
vt 0 NaN
vt 0 NaN
vt 0 NaN
vt 0 NaN
vt 0 NaN
vt 0 NaN
vt 0 NaN
vt 0 NaN
vt 0 NaN

usemtl color15

f 3/3/1 2/2/1 1/1/1
f 2/3/1 3/2/1 4/1/1
f 5/3/2 3/2/2 1/1/2
f 3/3/2 5/2/2 6/1/2
f 7/5/3 2/5/3 4/4/3
f 2/5/3 7/5/3 8/6/3
f 7/5/4 5/5/4 8/7/4
f 5/5/4 7/5/4 6/8/4
f 5/5/5 2/5/5 8/9/5
f 2/5/5 5/5/5 1/10/5
f 3/2/6 7/3/6 4/11/6
f 7/3/6 3/2/6 6/1/6
f 6/3/1 9/2/1 5/1/1
f 9/3/1 6/2/1 10/1/1
f 11/3/2 6/2/2 5/1/2
f 6/3/2 11/2/2 12/1/2
f 13/5/3 9/5/3 10/12/3
f 9/5/3 13/5/3 14/13/3
f 13/5/4 11/5/4 14/14/4
f 11/5/4 13/5/4 12/15/4
f 11/5/5 9/5/5 14/16/5
f 9/5/5 11/5/5 5/5/5
f 6/2/6 13/3/6 10/11/6
f 13/3/6 6/2/6 12/1/6
f 17/3/1 16/2/1 15/1/1
f 16/3/1 17/2/1 18/1/1
f 14/3/2 17/2/2 15/1/2
f 17/3/2 14/2/2 13/1/2
f 19/5/3 16/5/3 18/17/3
f 16/5/3 19/5/3 20/18/3
f 19/5/4 14/14/4 20/19/4
f 14/14/4 19/5/4 13/5/4
f 14/16/5 16/5/5 20/20/5
f 16/5/5 14/16/5 15/21/5
f 17/2/6 19/3/6 18/11/6
f 19/3/6 17/2/6 13/1/6
f 17/3/1 21/2/1 15/1/1
f 21/3/1 17/2/1 22/1/1
f 14/3/2 17/2/2 15/1/2
f 17/3/2 14/2/2 13/1/2
f 23/5/3 21/5/3 22/22/3
f 21/5/3 23/5/3 24/23/3
f 23/5/4 14/14/4 24/24/4
f 14/14/4 23/5/4 13/5/4
f 14/16/5 21/5/5 24/25/5
f 21/5/5 14/16/5 15/21/5
f 17/2/6 23/3/6 22/11/6
f 23/3/6 17/2/6 13/1/6
f 26/3/1 8/2/1 25/1/1
f 8/3/1 26/2/1 7/1/1
f 27/3/2 26/2/2 25/1/2
f 26/3/2 27/2/2 28/1/2
f 22/22/3 8/6/3 7/5/3
f 8/6/3 22/22/3 21/5/3
f 22/5/4 27/5/4 21/26/4
f 27/5/4 22/5/4 28/27/4
f 27/5/5 8/9/5 21/5/5
f 8/9/5 27/5/5 25/28/5
f 26/2/6 22/3/6 7/11/6
f 22/3/6 26/2/6 28/1/6

usemtl color14

f 31/3/1 30/2/1 29/1/1
f 30/3/1 31/2/1 32/1/1
f 33/3/2 31/2/2 29/1/2
f 31/3/2 33/2/2 34/1/2
f 35/5/3 30/5/3 32/29/3
f 30/5/3 35/5/3 36/30/3
f 35/5/4 33/5/4 36/31/4
f 33/5/4 35/5/4 34/32/4
f 33/5/5 30/5/5 36/33/5
f 30/5/5 33/5/5 29/34/5
f 31/2/6 35/3/6 32/11/6
f 35/3/6 31/2/6 34/1/6
f 34/3/1 37/2/1 33/1/1
f 37/3/1 34/2/1 38/1/1
f 39/3/2 34/2/2 33/1/2
f 34/3/2 39/2/2 40/1/2
f 41/5/3 37/5/3 38/35/3
f 37/5/3 41/5/3 42/36/3
f 41/5/4 39/5/4 42/37/4
f 39/5/4 41/5/4 40/38/4
f 39/5/5 37/5/5 42/39/5
f 37/5/5 39/5/5 33/5/5
f 34/2/6 41/3/6 38/11/6
f 41/3/6 34/2/6 40/1/6
f 31/3/1 43/2/1 29/1/1
f 43/3/1 31/2/1 44/1/1
f 45/3/2 31/2/2 29/1/2
f 31/3/2 45/2/2 46/1/2
f 47/5/3 43/5/3 44/40/3
f 43/5/3 47/5/3 48/41/3
f 47/5/4 45/5/4 48/42/4
f 45/5/4 47/5/4 46/43/4
f 45/5/5 43/5/5 48/44/5
f 43/5/5 45/5/5 29/34/5
f 31/2/6 47/3/6 44/11/6
f 47/3/6 31/2/6 46/1/6
f 34/3/1 49/2/1 33/1/1
f 49/3/1 34/2/1 50/1/1
f 39/3/2 34/2/2 33/1/2
f 34/3/2 39/2/2 40/1/2
f 51/5/3 49/5/3 50/45/3
f 49/5/3 51/5/3 52/46/3
f 51/5/4 39/5/4 52/47/4
f 39/5/4 51/5/4 40/38/4
f 39/5/5 49/5/5 52/48/5
f 49/5/5 39/5/5 33/5/5
f 34/2/6 51/3/6 50/11/6
f 51/3/6 34/2/6 40/1/6
f 55/3/1 54/2/1 53/1/1
f 54/3/1 55/2/1 56/1/1
f 52/3/2 55/2/2 53/1/2
f 55/3/2 52/2/2 51/1/2
f 57/5/3 54/5/3 56/49/3
f 54/5/3 57/5/3 58/50/3
f 57/5/4 52/47/4 58/51/4
f 52/47/4 57/5/4 51/5/4
f 52/48/5 54/5/5 58/52/5
f 54/5/5 52/48/5 53/53/5
f 55/2/6 57/3/6 56/11/6
f 57/3/6 55/2/6 51/1/6
f 60/3/1 36/2/1 59/1/1
f 36/3/1 60/2/1 35/1/1
f 61/3/2 60/2/2 59/1/2
f 60/3/2 61/2/2 62/1/2
f 56/49/3 36/30/3 35/5/3
f 36/30/3 56/49/3 54/5/3
f 56/5/4 61/5/4 54/54/4
f 61/5/4 56/5/4 62/55/4
f 61/5/5 36/33/5 54/5/5
f 36/33/5 61/5/5 59/56/5
f 60/2/6 56/3/6 35/11/6
f 56/3/6 60/2/6 62/1/6

usemtl color9

f 65/3/1 64/2/1 63/1/1
f 64/3/1 65/2/1 66/1/1
f 67/3/2 65/2/2 63/1/2
f 65/3/2 67/2/2 68/1/2
f 69/5/3 64/5/3 66/57/3
f 64/5/3 69/5/3 70/58/3
f 69/5/4 67/5/4 70/59/4
f 67/5/4 69/5/4 68/60/4
f 67/5/5 64/5/5 70/61/5
f 64/5/5 67/5/5 63/62/5
f 65/2/6 69/3/6 66/11/6
f 69/3/6 65/2/6 68/1/6

